<?xml version="1.0" standalone="no"?>
<!DOCTYPE svg PUBLIC "-//W3C//DTD SVG 20010904//EN"
 "http://www.w3.org/TR/2001/REC-SVG-20010904/DTD/svg10.dtd">
<svg version="1.0" xmlns="http://www.w3.org/2000/svg"
 width="1377.000000pt" height="1377.000000pt" viewBox="0 0 1377.000000 1377.000000"
 preserveAspectRatio="xMidYMid meet">
<metadata>
Created by potrace 1.14, written by Peter Selinger 2001-2017
</metadata>
<g transform="translate(0.000000,1377.000000) scale(0.100000,-0.100000)"
fill="#000000" stroke="none">
<path d="M7919 13433 l-26 -16 38 -71 c141 -262 267 -666 295 -946 3 -36 9
-93 13 -128 8 -70 6 -362 -3 -462 -5 -54 -25 -188 -42 -275 -92 -487 -360
-982 -762 -1407 l-45 -47 -40 42 c-95 102 -201 213 -347 367 -86 91 -183 194
-215 230 -32 36 -74 83 -94 105 -66 73 -188 229 -225 287 -19 31 -44 82 -53
113 -18 55 -19 55 -53 52 -32 -3 -35 -5 -32 -32 13 -105 149 -300 412 -590 55
-60 148 -162 175 -190 11 -12 67 -73 125 -135 58 -63 135 -146 172 -185 36
-38 77 -83 89 -99 l23 -29 -100 -95 c-54 -52 -146 -135 -204 -184 -58 -50
-118 -103 -135 -117 -16 -15 -174 -142 -350 -283 -423 -339 -487 -392 -635
-521 -541 -474 -836 -870 -1015 -1365 -34 -94 -89 -297 -98 -362 -3 -19 -10
-64 -15 -100 -22 -135 -32 -425 -18 -520 3 -19 8 -64 11 -100 7 -78 28 -200
50 -295 9 -38 19 -79 21 -90 2 -11 18 -67 35 -125 115 -380 283 -740 543
-1160 39 -63 76 -123 81 -132 78 -131 403 -578 612 -841 52 -65 93 -122 91
-127 -2 -4 -55 -62 -118 -127 -608 -627 -995 -1196 -1187 -1748 -21 -62 -67
-225 -79 -280 -2 -11 -6 -31 -9 -45 -3 -14 -8 -41 -10 -60 -3 -19 -7 -44 -10
-55 -4 -21 -10 -73 -20 -168 -22 -209 7 -542 66 -761 10 -36 12 -38 41 -32 18
3 33 8 35 10 2 2 -3 32 -11 67 -42 182 -60 344 -59 534 0 165 10 256 48 450
44 222 159 519 305 780 69 124 248 393 338 506 24 30 55 70 70 89 48 61 205
244 263 305 31 33 69 74 83 90 15 17 98 101 184 188 l157 158 35 -40 c19 -22
60 -70 90 -107 30 -37 60 -72 65 -78 6 -6 30 -36 55 -66 25 -30 55 -66 67 -80
594 -693 853 -1034 933 -1233 28 -69 31 -72 60 -70 17 0 34 3 36 6 10 9 -27
101 -76 194 -55 102 -166 267 -267 398 -111 142 -259 328 -278 349 -38 41
-574 700 -637 783 -7 8 0 21 20 40 139 133 263 247 363 334 13 11 40 35 59 52
37 35 269 240 385 341 87 77 448 398 455 406 3 3 50 46 105 95 139 125 456
435 540 529 501 554 712 938 762 1381 15 131 7 554 -11 584 -2 3 -7 33 -11 66
-8 72 -63 295 -104 421 -186 571 -591 1211 -1194 1889 -49 55 -103 116 -121
135 -17 20 -55 62 -84 94 l-53 58 68 76 c135 152 373 469 373 497 0 4 13 25
28 48 30 44 132 245 169 332 170 402 246 877 210 1320 -24 287 -93 579 -206
865 -39 97 -156 330 -166 330 -5 0 -22 -8 -36 -17z m-472 -3546 c10 -13 44
-52 75 -88 259 -295 533 -644 707 -902 l53 -78 -489 6 c-268 4 -509 8 -535 10
-30 1 -48 -2 -49 -9 -5 -51 -4 -168 2 -172 4 -2 197 -6 430 -10 233 -3 498 -7
589 -8 l165 -3 44 -74 c95 -160 231 -449 296 -626 20 -56 21 -63 6 -64 -9 0
-113 0 -231 1 -118 1 -401 3 -627 4 l-413 2 0 -91 0 -92 408 -2 c364 -2 916
-8 933 -10 6 -1 38 -126 40 -153 0 -4 5 -22 10 -40 5 -18 11 -54 14 -79 3 -25
8 -56 10 -69 10 -50 19 -200 20 -300 l0 -105 -533 -1 c-293 0 -535 -4 -539 -7
-3 -4 -7 -45 -7 -92 l-1 -85 532 0 532 0 -5 -37 c-25 -175 -102 -381 -217
-575 l-51 -88 -713 0 -713 0 0 -89 c0 -62 4 -90 13 -93 6 -2 299 -3 650 -2
579 1 636 0 625 -15 -7 -8 -18 -22 -25 -31 -118 -155 -274 -330 -520 -580
l-172 -175 -503 0 -503 0 -3 -93 -3 -92 408 0 407 0 -40 -36 c-21 -20 -73 -68
-115 -108 -120 -113 -297 -276 -415 -382 -40 -36 -89 -82 -111 -102 -22 -20
-100 -93 -173 -162 -160 -149 -375 -356 -403 -388 -12 -12 -24 -22 -28 -22
-11 0 -186 227 -290 375 -46 66 -86 122 -89 125 -35 29 -413 623 -436 685 -5
13 51 15 503 15 l509 0 -2 73 c-1 39 -2 81 -3 92 -1 20 -7 20 -560 19 l-559
-1 -67 141 c-90 187 -149 331 -206 501 -26 77 -46 141 -45 142 2 2 1091 11
1572 12 l321 1 -1 85 c-1 46 -5 88 -9 92 -7 7 -349 6 -1470 -2 l-458 -3 -8 21
c-5 12 -12 45 -16 72 -5 28 -10 57 -11 65 -4 14 -8 42 -19 120 -16 116 -27
373 -17 411 3 15 57 17 560 19 306 1 802 3 1102 5 300 2 649 4 775 4 l231 1
-1 83 c-1 45 -4 87 -7 92 -4 6 -98 9 -250 8 -133 -1 -727 -4 -1319 -8 l-1077
-6 14 73 c8 40 16 82 18 93 19 97 83 302 123 395 57 132 84 180 100 181 52 3
484 8 1183 14 432 4 798 8 815 9 l30 1 1 75 c0 41 -1 82 -3 91 -5 17 39 17
-1193 4 -656 -7 -695 -7 -724 -6 -18 1 -18 2 -1 29 131 206 423 543 624 720
l64 56 231 -3 c127 -2 332 -4 456 -5 l225 -1 0 90 0 90 -75 1 c-41 1 -200 3
-352 5 -153 2 -278 5 -278 6 0 1 48 44 108 94 143 123 149 127 212 179 30 25
57 47 60 50 3 3 73 61 155 130 275 228 436 372 619 556 34 34 66 62 73 63 6 1
20 -9 30 -22z"/>
</g>
</svg>
