<?xml version="1.0" standalone="no"?>
<!DOCTYPE svg PUBLIC "-//W3C//DTD SVG 20010904//EN"
 "http://www.w3.org/TR/2001/REC-SVG-20010904/DTD/svg10.dtd">
<svg version="1.0" xmlns="http://www.w3.org/2000/svg"
 width="1532.000000pt" height="1532.000000pt" viewBox="0 0 1532.000000 1532.000000"
 preserveAspectRatio="xMidYMid meet">
<metadata>
Created by potrace 1.14, written by Peter Selinger 2001-2017
</metadata>
<g transform="translate(0.000000,1532.000000) scale(0.100000,-0.100000)"
fill="#000000" stroke="none">
<path d="M8835 15154 c-16 -9 -40 -23 -52 -30 l-23 -14 60 -119 c138 -273 258
-649 295 -921 3 -25 8 -52 10 -60 27 -104 27 -651 0 -800 -3 -14 -7 -43 -10
-65 -4 -35 -45 -235 -60 -290 -2 -11 -21 -72 -41 -135 -144 -459 -372 -837
-754 -1253 l-44 -48 -69 73 c-39 40 -163 170 -276 288 -114 118 -238 249 -276
290 -37 41 -92 100 -120 130 -148 159 -305 379 -330 463 l-12 42 -79 -3 c-44
-2 -83 -7 -88 -12 -16 -16 35 -148 89 -235 72 -115 182 -257 294 -380 20 -22
70 -78 111 -125 41 -47 80 -90 85 -96 6 -6 53 -57 105 -114 52 -57 102 -111
110 -120 8 -9 82 -89 164 -179 l150 -164 -80 -75 c-73 -69 -298 -265 -370
-322 -89 -71 -280 -226 -284 -230 -3 -3 -57 -46 -120 -95 -486 -378 -825 -665
-1054 -891 -414 -410 -690 -831 -848 -1294 -31 -92 -82 -287 -93 -360 -4 -25
-9 -54 -11 -65 -3 -11 -7 -36 -9 -55 -3 -19 -7 -44 -10 -55 -17 -79 -23 -422
-11 -550 4 -38 9 -94 12 -124 2 -29 6 -56 8 -60 2 -3 7 -28 10 -56 33 -294
190 -765 393 -1181 63 -131 207 -393 277 -507 226 -369 521 -783 814 -1146 60
-74 98 -130 94 -137 -4 -7 -45 -52 -92 -101 -120 -126 -176 -187 -250 -273
-74 -85 -120 -138 -135 -154 -6 -6 -56 -67 -111 -136 -619 -773 -933 -1435
-1001 -2115 -14 -141 -8 -469 11 -610 23 -165 63 -352 78 -361 10 -7 138 25
152 37 6 5 5 29 -3 61 -27 115 -47 238 -60 368 -9 86 -6 381 4 455 3 22 7 60
10 85 3 25 15 90 26 145 84 424 278 841 598 1285 64 89 253 331 286 366 5 6
39 44 75 85 125 142 166 186 388 409 l224 225 31 -35 c18 -20 50 -58 72 -85
22 -27 108 -129 190 -226 83 -97 206 -242 275 -324 69 -81 132 -155 140 -165
357 -418 594 -752 655 -925 10 -27 21 -54 25 -58 4 -5 34 -3 67 3 l60 12 -18
54 c-32 95 -101 226 -197 369 -52 77 -97 142 -101 145 -4 3 -29 37 -56 75 -27
39 -52 72 -55 75 -4 3 -56 68 -115 145 -60 77 -112 142 -115 145 -3 3 -66 79
-140 170 -74 91 -136 167 -140 170 -3 3 -21 25 -40 50 -19 25 -44 56 -56 70
-28 30 -199 244 -234 290 -14 18 -46 59 -72 89 -26 31 -48 59 -48 64 0 9 11
19 124 122 49 44 101 91 116 105 16 14 36 32 46 40 11 9 76 65 145 125 133
116 230 200 287 250 20 17 43 37 52 45 8 8 110 96 225 195 116 99 215 184 221
190 6 5 42 37 79 70 38 33 73 65 79 70 6 6 60 53 121 105 60 52 116 102 125
110 509 471 778 762 1015 1099 264 375 409 734 441 1091 17 185 8 507 -18 655
-5 33 -12 75 -14 94 -5 40 -43 211 -49 221 -2 4 -7 21 -10 38 -10 58 -92 308
-134 407 -5 11 -23 56 -41 100 -128 310 -369 720 -638 1085 -81 109 -250 329
-262 340 -3 3 -52 61 -110 130 -122 145 -138 164 -165 194 -11 12 -42 47 -69
77 -101 113 -213 235 -258 284 -26 27 -48 54 -48 58 0 4 11 19 24 32 14 13 69
80 124 147 397 488 635 999 732 1568 23 138 25 148 36 305 13 177 7 487 -10
595 -3 14 -7 48 -11 75 -3 28 -10 76 -16 107 -5 32 -12 70 -15 85 -13 77 -80
328 -110 413 -18 52 -40 115 -49 140 -9 25 -25 64 -35 87 -11 24 -20 45 -20
49 0 11 -154 314 -159 314 -3 -1 -19 -8 -36 -16z m-488 -4191 c231 -270 428
-520 589 -748 88 -125 154 -223 154 -228 0 -3 -129 -3 -287 -1 -159 2 -403 5
-543 6 l-255 3 -3 -155 -3 -155 218 -3 c120 -1 331 -4 468 -7 138 -2 329 -4
426 -5 l176 0 53 -97 c30 -54 64 -117 77 -141 13 -24 46 -94 74 -155 27 -62
54 -121 59 -132 31 -67 91 -228 86 -232 -2 -3 -130 -4 -283 -3 -153 1 -453 3
-666 4 l-388 1 3 -155 3 -155 460 -2 c698 -4 964 -8 971 -16 8 -8 50 -215 59
-292 4 -33 9 -63 11 -67 6 -10 18 -272 15 -340 l-1 -38 -558 0 -559 0 0 -155
0 -155 544 0 c299 0 543 -3 543 -6 0 -19 -45 -180 -67 -239 -37 -101 -125
-278 -181 -365 l-48 -75 -755 0 -754 -1 0 -154 0 -155 638 0 c350 0 637 -2
637 -4 0 -4 -50 -72 -59 -81 -4 -3 -33 -36 -66 -75 -33 -38 -64 -75 -70 -82
-51 -58 -241 -259 -374 -395 l-164 -168 -519 0 -518 0 0 -155 0 -155 350 0
c193 0 350 -2 350 -4 0 -5 -135 -137 -210 -206 -31 -29 -203 -189 -314 -294
-106 -99 -406 -388 -565 -543 -97 -95 -178 -173 -181 -173 -3 1 -36 44 -75 97
-38 52 -75 101 -80 107 -6 6 -26 34 -45 61 -19 28 -38 55 -43 60 -24 28 -163
231 -272 395 -132 200 -192 296 -274 443 l-33 57 541 0 540 0 -2 155 -2 155
-623 0 -622 0 -31 63 c-92 188 -181 403 -245 592 -24 71 -44 129 -44 130 0 0
325 2 723 3 397 2 864 5 1037 6 l315 2 1 145 c0 79 -2 149 -4 155 -3 11 -236
11 -1674 0 -263 -2 -478 -1 -478 3 0 3 -7 38 -15 76 -32 155 -63 536 -48 595
4 14 86 16 736 19 403 2 939 5 1192 6 253 2 589 4 748 4 l287 1 0 156 0 156
-1237 -7 c-681 -3 -1339 -7 -1461 -8 -123 -1 -226 1 -228 5 -11 17 86 392 116
447 4 9 8 18 8 21 1 10 15 46 38 98 l23 52 108 1 c59 0 216 2 348 4 132 2 589
6 1015 10 426 3 776 8 779 11 3 3 6 73 6 155 l1 151 -831 -7 c-456 -4 -926 -8
-1042 -9 -117 -1 -213 1 -213 5 0 26 247 359 355 479 119 132 231 248 358 368
l66 62 363 -4 c572 -8 639 -8 643 -4 7 6 11 299 5 303 -4 2 -153 5 -332 7
-212 2 -324 6 -321 13 2 6 21 24 42 40 37 29 141 116 191 159 14 12 97 82 185
156 141 118 278 235 311 265 6 6 41 37 79 70 103 91 199 180 315 292 58 56
108 103 112 103 3 0 55 -57 115 -127z"/>
</g>
</svg>
