<?xml version="1.0" standalone="no"?>
<!DOCTYPE svg PUBLIC "-//W3C//DTD SVG 20010904//EN"
 "http://www.w3.org/TR/2001/REC-SVG-20010904/DTD/svg10.dtd">
<svg version="1.0" xmlns="http://www.w3.org/2000/svg"
 width="1529.000000pt" height="1529.000000pt" viewBox="0 0 1529.000000 1529.000000"
 preserveAspectRatio="xMidYMid meet">
<metadata>
Created by potrace 1.14, written by Peter Selinger 2001-2017
</metadata>
<g transform="translate(0.000000,1529.000000) scale(0.100000,-0.100000)"
fill="#000000" stroke="none">
<path d="M8885 15154 c-16 -8 -40 -22 -52 -32 l-21 -17 72 -147 c40 -80 94
-204 120 -274 41 -111 116 -362 129 -434 5 -27 17 -93 23 -125 2 -11 7 -40 10
-65 3 -25 7 -52 9 -60 26 -98 26 -704 1 -780 -2 -8 -7 -38 -10 -67 -30 -270
-173 -688 -339 -988 -82 -150 -297 -461 -351 -510 -6 -6 -36 -39 -66 -75 -30
-36 -75 -87 -99 -113 l-45 -48 -95 100 c-53 55 -170 177 -261 272 -213 222
-209 218 -317 335 -217 236 -356 422 -393 527 l-19 52 -83 -3 c-46 -2 -85 -6
-87 -8 -8 -8 22 -104 55 -169 31 -63 127 -206 179 -267 11 -13 40 -48 65 -78
25 -30 59 -71 76 -90 17 -19 73 -82 124 -140 52 -58 112 -125 135 -150 23 -25
71 -77 106 -115 179 -196 259 -284 311 -339 32 -34 58 -64 58 -67 0 -13 -235
-225 -385 -348 -55 -46 -111 -92 -124 -103 -13 -11 -166 -133 -340 -271 -302
-239 -614 -490 -637 -512 -6 -5 -39 -35 -74 -65 -577 -498 -916 -930 -1126
-1437 -60 -144 -128 -363 -147 -473 -3 -14 -12 -63 -20 -110 -30 -163 -38
-252 -39 -445 -1 -219 26 -479 67 -645 8 -30 16 -66 19 -80 15 -73 14 -69 62
-225 88 -287 245 -656 379 -895 17 -30 55 -98 85 -150 110 -195 381 -620 402
-628 4 -2 8 -8 8 -12 0 -17 304 -428 455 -615 44 -55 95 -119 113 -142 l34
-43 -84 -88 c-151 -159 -193 -205 -324 -357 -603 -695 -951 -1291 -1113 -1906
-33 -127 -34 -134 -56 -264 -22 -141 -29 -237 -30 -420 0 -153 10 -348 19
-364 2 -3 6 -28 10 -56 3 -27 15 -93 26 -145 12 -52 23 -110 27 -128 3 -17 10
-32 16 -32 20 0 142 32 150 40 5 4 -3 65 -17 136 -29 149 -33 172 -43 274 -14
139 -7 462 12 565 3 17 12 68 21 115 89 492 366 1037 798 1565 103 126 114
140 133 160 10 12 56 63 102 115 101 113 497 515 528 535 20 14 27 7 174 -168
84 -100 156 -184 159 -187 3 -3 55 -63 115 -135 60 -71 120 -141 132 -155 37
-43 264 -314 276 -330 7 -9 33 -40 58 -70 63 -75 253 -329 315 -420 62 -92
126 -208 149 -275 10 -27 21 -53 25 -58 3 -4 32 -2 63 4 41 9 57 16 57 28 -1
33 -71 186 -134 291 -98 163 -289 419 -583 780 -56 69 -203 251 -328 405 -125
154 -237 291 -249 305 -11 14 -36 45 -55 69 l-34 44 69 66 c61 59 126 117 283
256 25 22 51 45 57 50 6 6 37 33 69 60 33 28 131 113 220 190 88 77 203 176
255 220 52 44 104 89 116 100 12 11 34 31 50 44 35 29 247 214 254 221 3 3 39
34 80 70 41 36 81 72 90 80 9 8 57 51 106 95 198 177 514 493 666 666 412 468
654 896 732 1294 34 173 41 251 40 470 0 246 -22 437 -71 630 -8 33 -16 67
-18 75 -14 72 -71 252 -123 391 -175 465 -478 971 -896 1494 -88 110 -158 197
-166 205 -3 3 -30 34 -60 70 -96 114 -114 134 -180 206 -20 22 -60 66 -90 99
-29 33 -90 100 -134 149 -45 48 -82 92 -84 96 -2 5 19 33 47 63 325 360 597
831 732 1272 34 112 46 154 64 235 2 8 8 36 14 63 6 26 14 64 17 85 11 74 15
97 19 112 4 16 12 99 24 250 15 197 -2 555 -33 715 -2 11 -11 61 -21 110 -53
289 -156 591 -296 870 -75 148 -75 148 -114 129z m-564 -4102 c126 -142 362
-430 485 -592 115 -151 334 -462 334 -473 0 -3 -161 -3 -357 0 -197 2 -441 6
-543 6 l-185 2 0 -155 0 -154 120 -2 c961 -12 1162 -16 1170 -26 4 -5 71 -129
110 -203 87 -166 242 -531 231 -543 -3 -3 -113 -4 -243 -2 -131 1 -431 3 -666
4 l-428 2 3 -156 3 -155 345 -2 c409 -2 1090 -8 1090 -9 0 -1 11 -55 24 -120
14 -66 27 -137 30 -159 3 -22 8 -64 12 -94 10 -84 18 -248 15 -333 l-1 -37
-357 0 c-197 0 -449 0 -559 0 l-202 -1 1 -155 1 -155 544 0 544 0 -7 -32 c-4
-18 -12 -51 -18 -73 -5 -22 -11 -44 -13 -50 -20 -87 -139 -342 -212 -455 l-49
-75 -749 -1 c-412 -1 -751 -2 -754 -3 -3 0 -6 -70 -6 -155 l0 -154 642 2 642
1 -32 -40 c-17 -22 -43 -53 -57 -70 -197 -225 -231 -263 -483 -521 l-169 -174
-518 0 -519 0 0 -155 0 -155 350 0 c193 0 350 -3 350 -6 0 -4 -10 -15 -22 -26
-12 -10 -60 -56 -108 -101 -85 -81 -322 -304 -390 -367 -34 -31 -346 -330
-499 -478 -42 -41 -115 -112 -162 -159 l-86 -85 -54 68 c-30 38 -61 79 -69 90
-8 12 -58 80 -110 150 -109 149 -323 467 -427 634 -82 134 -163 270 -163 276
0 2 243 4 540 4 l539 0 -2 153 -3 152 -622 3 -622 2 -34 68 c-18 37 -48 101
-66 142 -17 41 -42 98 -55 125 -57 125 -169 444 -156 446 11 1 1334 11 1704
12 308 2 358 4 361 17 2 8 3 78 2 155 l-2 140 -724 -3 c-399 -2 -882 -5 -1073
-6 -202 -2 -350 1 -353 6 -8 13 -30 121 -39 193 -4 33 -9 71 -11 85 -19 141
-25 388 -10 398 6 3 193 7 416 9 223 1 745 4 1160 7 415 3 896 5 1068 5 l312
1 -1 150 c0 89 -5 152 -11 156 -5 3 -152 5 -326 4 -1813 -11 -2582 -13 -2588
-8 -5 6 28 166 55 263 34 123 109 328 127 344 10 11 431 18 1539 27 390 3 712
8 715 10 2 3 5 73 5 155 0 166 7 151 -70 151 -56 0 -1660 -14 -1837 -16 -98
-2 -178 2 -178 6 0 20 180 271 278 388 117 140 275 307 424 447 l77 72 505 -6
506 -5 1 78 c0 44 2 112 3 152 1 40 -1 75 -5 77 -3 3 -153 6 -333 7 l-327 3
43 40 c24 22 68 60 97 85 30 25 59 50 65 55 6 6 79 66 161 135 83 69 152 127
155 130 3 3 50 43 105 90 55 46 118 101 140 120 22 20 90 81 150 136 61 54
157 145 215 201 58 56 108 103 111 103 4 0 22 -17 40 -38z"/>
</g>
</svg>
