<?xml version="1.0" encoding="UTF-8" standalone="no"?>
<!DOCTYPE svg PUBLIC "-//W3C//DTD SVG 1.1//EN" "http://www.w3.org/Graphics/SVG/1.1/DTD/svg11.dtd">
<svg width="100%" height="100%" viewBox="0 0 2048 1536" version="1.1" xmlns="http://www.w3.org/2000/svg" xmlns:xlink="http://www.w3.org/1999/xlink" xml:space="preserve" xmlns:serif="http://www.serif.com/" style="fill-rule:evenodd;clip-rule:evenodd;stroke-linecap:square;stroke-linejoin:round;stroke-miterlimit:2;">
    <g transform="matrix(1.46546,-0.0582738,0.0580032,1.45865,146.965,-510.433)">
        <path d="M472.404,551.223C473.076,571.595 517.917,615.957 563.352,673.876C583.251,699.243 602.962,727.443 619.196,757.163C645.958,806.157 662.861,859.574 651.247,912.924C647.524,930.786 637.948,947.962 624.962,965.253C613.517,980.493 599.283,995.645 583.419,1011.1C557.117,1036.72 526.373,1063.03 495.161,1090.21C449.092,1130.33 402.671,1172.79 369.183,1218.95C350.229,1245.09 335.47,1272.42 327.288,1301.42C319.136,1330.33 317.371,1360.88 324.926,1393.57L330.74,1392.26C323.919,1360.65 325.762,1331.16 334.278,1303.51C342.849,1275.67 358.093,1249.72 377.397,1225.23C412.107,1181.18 460.169,1142.14 507.082,1104.64C539.81,1078.47 572.226,1053.35 599.347,1027.92C616.537,1011.81 631.6,995.525 643.55,979.139C658.433,958.73 668.426,937.989 672.172,917.009C679.691,872.808 670.166,829.26 651.239,788.284C634.659,752.389 610.84,718.664 586.385,687.899C535.042,623.31 479.5,573.159 478.303,550.968L472.404,551.223Z" style="fill:rgb(66,150,172);"/>
    </g>
    <g transform="matrix(-1.46572,0.0512121,-0.0512121,-1.46572,1722.55,2058.08)">
        <path d="M462.58,511.373C467.185,536.949 509.338,585.322 553.31,645.276C583.766,686.801 614.869,734.068 635.171,782.687C653.298,826.099 662.652,870.661 653.834,913.466C649.793,933.685 642.618,951.439 633.368,967.539C623.582,984.573 611.345,999.681 597.665,1013.78C572.24,1039.99 541.797,1062.62 511.827,1086.07C466.263,1121.71 422.118,1159.41 398.447,1214.08C384.521,1245.95 379.268,1278.79 380.694,1310.42C382.213,1344.08 391.293,1376.38 406.132,1404.56L410.107,1402.5C396.014,1374.77 387.378,1343.11 386.577,1310.21C385.832,1279.63 391.909,1248.02 406.192,1217.59C430.915,1165.38 475.25,1130.65 520.429,1097.4C551.722,1074.38 583.613,1052.24 609.854,1025.76C639.011,996.335 661.171,961.687 669.585,916.467C677.609,870.678 666.792,823.489 646.104,777.924C624.008,729.256 590.638,682.568 558.765,641.176C513.979,583.014 471.81,535.745 466.882,510.565L462.58,511.373Z" style="fill:rgb(79,195,224);"/>
    </g>
    <g transform="matrix(21.8177,-0.0921225,0.0763352,18.0787,-7754.72,-14732)">
        <text x="364.901px" y="867.913px" style="font-family:'Avenir-Book', 'Avenir';font-size:24px;fill:rgb(66,150,172);stroke:rgb(66,150,172);stroke-width:0.49px;">C    LE</text>
    </g>
    <g transform="matrix(2.07163,-0.18046,0.228848,2.62712,-728.128,-602.035)">
        <path d="M646.493,651.601C655.336,652.025 692.928,654.945 708.107,655.778L709.145,644.014C693.935,643.179 656.262,640.255 647.401,639.83L646.493,651.601Z" style="fill:rgb(79,195,224);"/>
    </g>
    <g transform="matrix(2.43557,0.00110215,-0.00110215,2.43557,-822.524,-604.824)">
        <path d="M632.637,610.924C643.67,610.939 704.936,610.273 723.729,610.273L723.729,597.505C704.94,597.505 643.685,598.17 632.654,598.156L632.637,610.924Z" style="fill:rgb(79,195,224);"/>
    </g>
    <g transform="matrix(2.43235,0.125161,-0.125161,2.43235,-750.526,-689.086)">
        <path d="M628.256,573.124C664.81,570.986 731.931,567.097 754.528,565.928L753.868,553.177C731.257,554.346 664.089,558.238 627.511,560.378L628.256,573.124Z" style="fill:rgb(79,195,224);"/>
    </g>
    <g transform="matrix(2.43356,0.0988735,-0.0988735,2.43356,-779.02,-642.145)">
        <path d="M641.713,521.381C646.761,521.04 718.074,517.377 737.823,516.548L737.287,503.791C717.472,504.623 645.916,508.3 640.851,508.642L641.713,521.381Z" style="fill:rgb(79,195,224);"/>
    </g>
    <g transform="matrix(2.12847,-1.08547e-17,1.22274e-17,-2.49748,-601.591,2595.21)">
        <path d="M714.82,641.543C724.037,641.505 761.413,641.418 768.115,641.454C769.121,641.46 769.711,641.489 769.817,641.498C773.489,641.812 774.769,643.749 775.043,644.076C776.504,645.818 776.708,647.606 776.139,649.356C776.009,649.757 775.1,653.475 769.757,653.896L768.412,641.498C763.086,641.917 762.188,645.634 762.059,646.033C761.985,646.26 768.783,653.912 768.783,653.912C768.783,653.912 768.403,653.908 768.022,653.906C761.34,653.869 724.079,653.957 714.89,653.994L714.82,641.543Z" style="fill:rgb(66,150,172);"/>
    </g>
    <g transform="matrix(1.42723,1.64467,0.87918,-0.762942,-729.317,436.173)">
        <path d="M715.648,634.546C722.558,635.601 727.116,634.465 729.656,634.637L729.14,661.334C726.484,661.155 721.715,662.276 714.487,661.172L715.648,634.546Z" style="fill:rgb(66,150,172);"/>
    </g>
    <g transform="matrix(2.43388,0.090659,3.17932,2.55568,-2767.65,-750.156)">
        <path d="M735.368,612.455C746.356,612.069 802.188,609.94 807.56,609.94L824.715,597.172C819.306,597.172 763.102,599.307 752.039,599.696L735.368,612.455Z" style="fill:rgb(66,150,172);"/>
    </g>
    <g transform="matrix(2.42587,0.217077,-0.217077,2.42587,-723.8,-760.892)">
        <path d="M778.279,566.396C794.51,565.023 819.672,562.774 830.23,561.685L828.921,548.985C818.41,550.068 793.362,552.307 777.203,553.673L778.279,566.396Z" style="fill:rgb(66,150,172);"/>
    </g>
    <g transform="matrix(2.4348,0.0611839,-0.0611839,2.4348,-819.688,-618.229)">
        <path d="M760.769,512.261C773.762,511.817 801.253,511.395 823.728,511.137L823.582,498.37C801.004,498.629 773.387,499.055 760.334,499.5L760.769,512.261Z" style="fill:rgb(66,150,172);"/>
    </g>
    <g transform="matrix(2.37403,0.0616463,-0.0586036,2.25685,-742.04,-555.65)">
        <path d="M672.227,477.629L718.636,476.94L718.525,465.921L672.554,466.615L672.227,477.629Z" style="fill:rgb(79,195,224);"/>
    </g>
    <g transform="matrix(2.90271,0.0753745,-0.0576274,2.21926,-953.412,-546.594)">
        <path d="M672.482,477.724L718.617,477.034L718.544,465.828L672.3,466.52L672.482,477.724Z" style="fill:rgb(66,150,172);"/>
    </g>
    <g transform="matrix(3.5626,0,0,3.04527,-2494.63,-2266.89)">
        <text x="1012.89px" y="1143.3px" style="font-family:'Avenir-BookOblique', 'Avenir';font-style:italic;font-size:99.218px;fill:rgb(66,150,172);stroke:rgb(66,150,172);stroke-width:1.81px;stroke-linecap:butt;">lab</text>
    </g>
</svg>
