<svg width="96" height="98" xmlns="http://www.w3.org/2000/svg" xmlns:xlink="http://www.w3.org/1999/xlink" xml:space="preserve" overflow="hidden"><defs><clipPath id="clip0"><rect x="692" y="2" width="96" height="98"/></clipPath><clipPath id="clip1"><rect x="692" y="3" width="96" height="96"/></clipPath><clipPath id="clip2"><rect x="692" y="3" width="96" height="96"/></clipPath><clipPath id="clip3"><rect x="692" y="3" width="96" height="96"/></clipPath></defs><g clip-path="url(#clip0)" transform="translate(-692 -2)"><g clip-path="url(#clip1)"><g clip-path="url(#clip2)"><g clip-path="url(#clip3)"><path d="M720.6 83.6 714 68.7 714 58.6C714.023 57.3769 714.663 56.2483 715.7 55.6 716.242 55.3533 716.482 54.7136 716.236 54.1711 716.225 54.147 716.213 54.1233 716.2 54.1 716.018 53.6685 715.562 53.4198 715.1 53.5L703.7 53.5C703.076 53.4617 702.54 53.936 702.502 54.5595 702.501 54.573 702.5 54.5865 702.5 54.6 702.465 55.0531 702.7 55.4842 703.1 55.7 704.169 56.3172 704.82 57.4655 704.8 58.7L704.8 68.8 698.3 83.6C697.527 85.2705 698.254 87.2515 699.924 88.0248 699.982 88.0515 700.041 88.0766 700.1 88.1 700.538 88.3047 701.017 88.4072 701.5 88.4L717.5 88.4C719.362 88.4155 720.885 86.9185 720.9 85.0562 720.9 85.0375 720.9 85.0187 720.9 85 720.907 84.5166 720.805 84.0379 720.6 83.6ZM711.7 58.6 711.7 60.9 707.2 60.9 707.2 58.6C707.231 57.5749 706.952 56.5642 706.4 55.7L712.5 55.7C711.992 56.5835 711.717 57.5812 711.7 58.6Z" fill="#000000" fill-rule="nonzero" fill-opacity="1"/><path d="M767.3 60.479C764.166 57.818 759.87 55.528 753.869 53.302 755.977 53.0729 758.044 52.5585 760.013 51.773 760.013 51.773 757.752 50.42 756.35 44.882 755.461 41.403 758.863 32.705 758.892 26.582 758.892 21.682 757.5 19.489 754.872 18.001 753.354 17.14 749.856 17.933 749.856 17.933 749.856 17.933 748.047 14.508 742 12.623 737.028 11.2691 731.722 11.9472 727.25 14.508 723.51 16.924 721.702 19.582 721.615 28.724 721.538 37.103 722.688 44.544 722.157 48.052 721.912 49.994 721.173 51.8408 720.011 53.416 721.847 53.5701 723.691 53.6102 725.532 53.536 722.212 54.7387 719.019 56.2675 716 58.1L716 62.967C719.081 60.7073 722.471 58.901 726.065 57.603L724.145 66.182C723.964 66.9904 724.472 67.7925 725.281 67.9737 725.388 67.9978 725.499 68.01 725.609 68.01L729.249 68.01 727.33 71.71C726.983 72.3785 727.186 73.2004 727.804 73.631L738.51 81.1 738.51 86.989C733.261 86.9493 728.02 86.5789 722.818 85.88 722.589 87.3902 721.72 88.7282 720.433 89.551 727.002 90.6017 733.647 91.1051 740.3 91.056 753.1 91.056 765.8 89.4 770.2 86.1L771 85.5 771 67.961C770.891 65.0532 769.545 62.3306 767.3 60.479ZM747 67.2 749.447 71.925 742.663 76.655 748.834 55.855 750.734 56.823 752.565 65.013 748.335 65.013C747.507 65.0121 746.834 65.683 746.833 66.5114 746.833 66.751 746.89 66.9871 747 67.2ZM728.009 36 728.009 30.942C728.497 30.9125 728.982 30.8545 729.463 30.768 732.818 30.3257 736.092 29.4043 739.185 28.032 742.662 26.284 744.656 25.426 747.541 22.813 747.922 22.4389 748.534 22.4446 748.909 22.8257 749.05 22.97 749.143 23.1551 749.174 23.355 749.404 24.944 750.002 28.443 750.798 29.839 751.157 30.5253 751.562 31.1865 752.01 31.818L752.01 36C752.003 42.6244 746.634 47.9928 740.01 48 733.385 47.9934 728.016 42.6248 728.009 36ZM730.6 71.927 733.051 67.2C733.432 66.4644 733.145 65.5592 732.409 65.1781 732.196 65.0676 731.959 65.01 731.719 65.01L727.486 65.01 729.318 56.82 731.218 55.852 737.389 76.652ZM740.025 75.005 733.58 53.272C733.566 53.2346 733.55 53.1978 733.533 53.162 733.841 52.5 734.001 51.7783 734 51.048L734 50.823C737.848 52.3944 742.158 52.3944 746.006 50.823L746.006 51.045C746.005 51.7945 746.173 52.5347 746.496 53.211 746.489 53.231 746.478 53.249 746.472 53.269ZM767 83.41C762.775 85.734 752.3 86.924 741.506 86.994L741.506 81.122 752.241 73.636C752.859 73.2054 753.062 72.3835 752.715 71.715L750.797 68.015 754.435 68.015C755.263 68.0161 755.936 67.3454 755.937 66.517 755.937 66.4049 755.925 66.2933 755.9 66.184L753.988 57.635C757.856 59.0052 761.476 60.9952 764.706 63.527 766.078 64.619 766.914 66.2486 767 68Z" fill="#000000" fill-rule="nonzero" fill-opacity="1"/><path d="M712.304 39.7C712.304 40.6389 711.543 41.4 710.604 41.4 709.665 41.4 708.904 40.6389 708.904 39.7 708.904 38.7611 709.665 38 710.604 38 711.543 38 712.304 38.7611 712.304 39.7Z" fill="#000000" fill-rule="nonzero" fill-opacity="1"/><path d="M711.8 44.9C711.8 45.8389 712.561 46.6 713.5 46.6 714.439 46.6 715.2 45.8389 715.2 44.9 715.2 43.9611 714.439 43.2 713.5 43.2 712.561 43.2 711.8 43.9611 711.8 44.9Z" fill="#000000" fill-rule="nonzero" fill-opacity="1"/><path d="M707.2 45.4C708.139 45.4 708.9 44.6389 708.9 43.7 708.9 42.7611 708.139 42 707.2 42 706.261 42 705.5 42.7611 705.5 43.7 705.5 44.6389 706.261 45.4 707.2 45.4Z" fill="#000000" fill-rule="nonzero" fill-opacity="1"/><path d="M706 50C706 51.2703 707.03 52.3 708.3 52.3 709.57 52.3 710.6 51.2703 710.6 50 710.6 48.7297 709.57 47.7 708.3 47.7 707.03 47.7 706 48.7297 706 50Z" fill="#000000" fill-rule="nonzero" fill-opacity="1"/></g></g></g></g></svg>